<svg xmlns="http://www.w3.org/2000/svg" width="2000" height="2000" viewBox="0 0 2000 2000">
  <metadata><?xpacket begin="﻿" id="W5M0MpCehiHzreSzNTczkc9d"?>
<x:xmpmeta xmlns:x="adobe:ns:meta/" x:xmptk="Adobe XMP Core 5.6-c142 79.160924, 2017/07/13-01:06:39        ">
   <rdf:RDF xmlns:rdf="http://www.w3.org/1999/02/22-rdf-syntax-ns#">
      <rdf:Description rdf:about=""/>
   </rdf:RDF>
</x:xmpmeta>
                                                                                                    
                                                                                                    
                                                                                                    
                                                                                                    
                                                                                                    
                                                                                                    
                                                                                                    
                                                                                                    
                                                                                                    
                                                                                                    
                                                                                                    
                                                                                                    
                                                                                                    
                                                                                                    
                                                                                                    
                                                                                                    
                                                                                                    
                                                                                                    
                                                                                                    
                                                                                                    
                           
<?xpacket end="w"?></metadata>
<defs>
    <style>
      .cls-1, .cls-2, .cls-4 {
        fill: #00a0e9;
      }

      .cls-1, .cls-3, .cls-4, .cls-5, .cls-6, .cls-7 {
        fill-rule: evenodd;
      }

      .cls-3 {
        fill: none;
        stroke: #00a0e9;
        stroke-width: 25px;
      }

      .cls-4, .cls-5, .cls-6, .cls-7 {
        opacity: 0.5;
      }

      .cls-5 {
        fill: #f93;
      }

      .cls-6 {
        fill: lime;
      }

      .cls-7 {
        fill: #c3c;
      }
    </style>
  </defs>
  <path id="创造梦想" class="cls-1" d="M444.744,1145.62q0,4.215-4.608,4.22H323.016V1015.06H423.624v52.28a4.72,4.72,0,0,1-1.152,3.22,3.853,3.853,0,0,1-3.072,1.33H354.12v30.33H419.4a34.092,34.092,0,0,0,34.56-34.56V977.807H423.624v6.912H292.68V1180.18H440.448a34.149,34.149,0,0,0,34.632-34.56v-32.26H444.744v32.26Zm87.168-227.333H501.576V1121.04h30.336V918.287Zm29.952,227.333q0,4.215-4.224,4.22h-57.6v30.34h57.84a34.191,34.191,0,0,0,34.32-34.61V884.5l-30.336.384V1145.62ZM336.456,885.263V915.6h92.928L465.1,979.727l26.5-14.976-44.544-79.488H336.456Zm-34.56-2.688a222.714,222.714,0,0,1-14.016,28.992q-8.262,14.4-16.128,25.536t-19.008,25.344l11.52,9.984,11.52,9.6q0.378-.765,6.72-8.448T297.1,953.615q8.253-12.285,17.28-28.032a249.438,249.438,0,0,0,15.552-32.256h0Zm425.472,34.176-72.96-31.1L642.5,913.3l72.96,31.1ZM651.72,1182.48a167.739,167.739,0,0,0,19.2-12.67,161.575,161.575,0,0,0,15.36-13.44,119.863,119.863,0,0,0,10.434,7.49,102.49,102.49,0,0,0,14.568,7.68,103.776,103.776,0,0,0,18.558,5.95,102.487,102.487,0,0,0,22.488,2.3H979.272v-30.33H752.328a75.125,75.125,0,0,1-16.7-1.73,73.87,73.87,0,0,1-13.482-4.43,83.976,83.976,0,0,1-10.272-5.39,39.824,39.824,0,0,1-6.612-5,119.444,119.444,0,0,0,15.558-38.67,87.632,87.632,0,0,0,1.746-13.27q0.2-5.385.2-6.93V958.223H642.888v30.336h49.536v86.781q-1.152,16.515-6.336,28.61t-16.512,26.11q-11.331,14.025-32.448,25.92h0ZM775.368,888.335a171,171,0,0,1-10.56,26.5,244.127,244.127,0,0,1-12.48,22.272q-6.147,9.6-14.976,21.12l11.52,9.6,11.52,9.6a85.91,85.91,0,0,1,5.376-6.72,153.621,153.621,0,0,0,11.52-16.32h71.424v34.56h-107.9v30.337h241.92V988.943H879.048v-34.56h84.1V924.047h-84.1V886.415H848.712v37.632H793.8a155.454,155.454,0,0,0,10.368-27.264h0ZM759.624,1041.55v97.54H928.2a34.108,34.108,0,0,0,34.56-34.56v-69.89H932.424v6.91h-172.8Zm172.8,62.98c0,2.82-1.41,4.22-4.224,4.22H789.96v-36.86H932.424v32.64ZM1363.27,939.407V909.071h-62.21V885.647h-30.33v23.424h-62.59v30.336h24.57q-4.995,11.907-13.44,27.84a233.657,233.657,0,0,1-20.73,32.064l-29.19-59.9h24.58V909.071h-62.59V885.647H1101v23.424h-62.59v30.336h24.57q-5.37,12.672-14.59,29.952a210.482,210.482,0,0,1-23.04,34.181l23.04,19.58a291.874,291.874,0,0,0,17.47-24q7.875-12.1,13.64-23.232t9.79-20.544q4.035-9.4,6.33-15.936H1101v84.863h14.59q-3.84,4.605-10.56,12.48t-15.36,17.09q-8.64,9.21-18.81,18.62t-20.55,17.48l18.43,24.19q8.835-6.915,17.67-14.98t16.89-15.74h206.6v0.38q-21.51,15.75-50.5,26.69a526.332,526.332,0,0,1-60.1,18.62l-41.47-41.85-21.5,21.12,28.03,28.41q-24.585,4.62-46.66,7.49t-39.16,4.23q-17.1,1.335-27.27,1.92c-6.78.38-10.31,0.57-10.56,0.57l0.77,30.34q1.92,0,18.62-.96t42.05-3.84q25.35-2.88,56.64-8.07a610.34,610.34,0,0,0,63.17-14.01,483.972,483.972,0,0,0,61.44-21.51q29.565-12.66,51.07-30.33l5.38-4.61v-50.3H1309.9v5.37H1130.95q5.76-6.525,9.22-10.75a53.559,53.559,0,0,0,3.84-4.99l-16.9-13.06h4.23V939.407h30.33l-20.73,9.984,33.79,70.659,24.96-12.29,18.43,15.36a291.874,291.874,0,0,0,17.47-24q7.875-12.1,13.63-23.232t9.8-20.544q4.02-9.4,6.33-15.936h5.38v84.863h30.33V939.407h30.34l-20.74,9.984,33.8,70.659,27.26-13.06-32.64-67.583h24.19Zm383.62,227.333-35.33-77.57-27.65,12.67,35.33,77.57Zm-307.2,12.67,35.33-77.57-27.65-12.67-35.33,77.57Zm243.07-30.34-160.13-.76,0.39-51.85h-30.34l-0.38,82.56,190.46,0.77v-30.72Zm-51.84-8.83,11.14-28.03-78.72-32.26-11.14,28.03Zm-122.11-66.82V945.167l54.91,0.384V915.215h-54.91V885.263h-30.34v29.952h-55.29v29.952l20.35,0.384q-1.545,11.142-4.23,26.112t-6.14,31.487q-3.45,16.515-7.87,32.83a247.538,247.538,0,0,1-9.79,29.38l28.03,11.14a285.265,285.265,0,0,0,11.13-33.41q4.995-18.435,8.84-36.48,3.825-18.049,6.33-34.179t4.03-26.88h4.61V1073.42h30.34Zm6.14-107.133,23.81,107.9,29.18-6.53-23.42-107.9Zm221.95-76.8h-30.33v6.528H1579.08V1071.89h123.26a33.6,33.6,0,0,0,24.39-9.99,33.064,33.064,0,0,0,10.17-24.57V889.487ZM1706.57,992.4h-97.15V974.735h97.15V992.4Zm0-66.048V944.4l-97.15.384V926.351h97.15Zm-97.15,96.389h97.15v14.59c0,2.82-1.41,4.22-4.23,4.22h-92.92v-18.81Z"/>
  <rect id="矩形_1" data-name="矩形 1" class="cls-2" x="724.375" y="1391" width="565.785" height="22"/>
  <path id="形状_1_拷贝" data-name="形状 1 拷贝" class="cls-3" d="M1345,1530.53a827.623,827.623,0,0,1-55.65,77.97c-19.43,24.1-38.87,45.77-57.66,63.96a558.152,558.152,0,0,1-64.86,54.38c-20.89,14.84-40.6,26.55-60.86,35.98-23.46,10.92-43.97,17.32-62.87,20.39a215.964,215.964,0,0,1-35.63,2.8"/>
  <path id="形状_1_拷贝_2" data-name="形状 1 拷贝 2" class="cls-3" d="M671.942,1530.53A825.847,825.847,0,0,0,727.6,1608.5c19.424,24.1,38.867,45.77,57.656,63.96a557.931,557.931,0,0,0,64.864,54.38c20.889,14.84,40.591,26.55,60.859,35.98,23.46,10.92,43.97,17.32,62.862,20.39a216.051,216.051,0,0,0,35.633,2.8"/>
  <path id="椭圆_1" data-name="椭圆 1" class="cls-4" d="M875,182c138.07,0,250,111.929,250,250S1013.07,682,875,682,625,570.071,625,432,736.929,182,875,182Zm0,0c138.07,0,250,111.929,250,250S1013.07,682,875,682,625,570.071,625,432,736.929,182,875,182Zm0,0c138.07,0,250,111.929,250,250S1013.07,682,875,682,625,570.071,625,432,736.929,182,875,182Z"/>
  <path id="椭圆_1_拷贝" data-name="椭圆 1 拷贝" class="cls-5" d="M1125,182c138.07,0,250,111.929,250,250s-111.93,250-250,250S875,570.071,875,432,986.929,182,1125,182Zm0,0c138.07,0,250,111.929,250,250s-111.93,250-250,250S875,570.071,875,432,986.929,182,1125,182Zm0,0c138.07,0,250,111.929,250,250s-111.93,250-250,250S875,570.071,875,432,986.929,182,1125,182Z"/>
  <path id="椭圆_1-2" data-name="椭圆 1" class="cls-6" d="M1000,57c138.07,0,250,111.929,250,250s-111.93,250-250,250S750,445.071,750,307,861.929,57,1000,57Zm0,0c138.07,0,250,111.929,250,250s-111.93,250-250,250S750,445.071,750,307,861.929,57,1000,57Zm0,0c138.07,0,250,111.929,250,250s-111.93,250-250,250S750,445.071,750,307,861.929,57,1000,57Z"/>
  <path id="椭圆_1_拷贝-2" data-name="椭圆 1 拷贝" class="cls-7" d="M1000,307c138.07,0,250,111.929,250,250s-111.93,250-250,250S750,695.071,750,557,861.929,307,1000,307Zm0,0c138.07,0,250,111.929,250,250s-111.93,250-250,250S750,695.071,750,557,861.929,307,1000,307Zm0,0c138.07,0,250,111.929,250,250s-111.93,250-250,250S750,695.071,750,557,861.929,307,1000,307Z"/>
</svg>
